HIERARCHY
ROOT Hips
{
    OFFSET 0.000000 0.000000 0.000000
    CHANNELS 6 Xposition Yposition Zposition Zrotation Xrotation Yrotation
    JOINT Spine
    {
        OFFSET -0.000000 7.755141 0.000000
        CHANNELS 3 Zrotation Xrotation Yrotation
        JOINT Spine1
        {
            OFFSET -0.000000 20.093737 0.000000
            CHANNELS 3 Zrotation Xrotation Yrotation
            JOINT Neck
            {
                OFFSET -0.000000 21.985235 0.000000
                CHANNELS 3 Zrotation Xrotation Yrotation
                JOINT Head
                {
                    OFFSET -0.000000 14.659108 1.891498
                    CHANNELS 3 Zrotation Xrotation Yrotation
                    End Site
                    {
                        OFFSET -0.000000 18.914978 0.000000
                    }
                }
            }
            JOINT LeftShoulder
            {
                OFFSET 3.789246 18.853123 -0.208244
                CHANNELS 3 Zrotation Xrotation Yrotation
                JOINT LeftArm
                {
                    OFFSET 9.468541 0.000000 0.000000
                    CHANNELS 3 Zrotation Xrotation Yrotation
                    JOINT LeftForeArm
                    {
                        OFFSET 31.465202 0.000000 0.000000
                        CHANNELS 3 Zrotation Xrotation Yrotation
                        JOINT LeftHand
                        {
                            OFFSET 26.964474 0.000000 0.000000
                            CHANNELS 3 Zrotation Xrotation Yrotation
                            End Site
                            {
                                OFFSET 14.186234 0.000000 0.000000
                            }
                        }
                    }
                }
            }
            JOINT RightShoulder
            {
                OFFSET -3.772747 18.853123 -0.208244
                CHANNELS 3 Zrotation Xrotation Yrotation
                JOINT RightArm
                {
                    OFFSET -9.468541 0.000000 0.000000
                    CHANNELS 3 Zrotation Xrotation Yrotation
                    JOINT RightForeArm
                    {
                        OFFSET -31.465202 0.000000 0.000000
                        CHANNELS 3 Zrotation Xrotation Yrotation
                        JOINT RightHand
                        {
                            OFFSET -26.964474 0.000000 0.000000
                            CHANNELS 3 Zrotation Xrotation Yrotation
                            End Site
                            {
                                OFFSET -14.186234 0.000000 0.000000
                            }
                        }
                    }
                }
            }
        }
    }
    JOINT LeftUpLeg
    {
        OFFSET 9.457489 0.000000 0.000000
        CHANNELS 3 Zrotation Xrotation Yrotation
        JOINT LeftLeg
        {
            OFFSET -0.000000 -40.941395 0.000000
            CHANNELS 3 Zrotation Xrotation Yrotation
            JOINT LeftFoot
            {
                OFFSET -0.000000 -37.782906 0.000000
                CHANNELS 3 Zrotation Xrotation Yrotation
                JOINT LeftToeBase
                {
                    OFFSET -0.000000 -6.147367 14.186234
                    CHANNELS 3 Zrotation Xrotation Yrotation
                    End Site
                    {
                        OFFSET -0.000000 0.000000 3.782995
                    }
                }
            }
        }
    }
    JOINT RightUpLeg
    {
        OFFSET -9.457489 0.000000 0.000000
        CHANNELS 3 Zrotation Xrotation Yrotation
        JOINT RightLeg
        {
            OFFSET -0.000000 -40.941395 0.000000
            CHANNELS 3 Zrotation Xrotation Yrotation
            JOINT RightFoot
            {
                OFFSET -0.000000 -37.782906 0.000000
                CHANNELS 3 Zrotation Xrotation Yrotation
                JOINT RightToeBase
                {
                    OFFSET -0.000000 -6.147367 14.186234
                    CHANNELS 3 Zrotation Xrotation Yrotation
                    End Site
                    {
                        OFFSET -0.000000 0.000000 3.782995
                    }
                }
            }
        }
    }
}
MOTION
Frames:    13
Frame Time:    0.010000
47.072853    89.293159    60.068249    -1.299776    -1.471794    1.657011    -1.918373    -8.378090    0.586337    2.321757    4.055034    0.160641    0.512235    12.125761    -0.653647    -1.388663    5.570708    -0.307337    -2.625328    4.527058    -0.611841    -70.105751    48.305271    -7.561347    8.374255    -14.473822    -12.517785    -30.640518    -14.397962    3.072371    -1.200311    7.422225    -6.671889    49.066654    79.135788    27.116318    -19.948776    -22.845444    8.937892    34.321125    -20.853331    1.849657    2.899694    3.986552    2.025023    -2.058403    6.335884    0.466333    3.393807    -10.173507    19.217670    0.000000    0.000000    0.000000    -3.302594    3.895792    1.072155    2.371121    4.827035    1.169672    3.278742    -8.590037    -11.627705    0.000000    0.000000    0.000000    
47.072990    89.294411    60.072483    -1.296876    -1.466045    1.647208    -1.910331    -8.383243    0.592038    2.302255    4.060943    0.162880    0.497075    12.095799    -0.645315    -1.343657    5.604990    -0.310053    -2.604643    4.512650    -0.598154    -70.126068    48.333237    -7.554242    8.388352    -14.476957    -12.508651    -30.667650    -14.399459    3.066633    -1.184657    7.427253    -6.679777    48.981518    79.129524    27.197124    -19.961468    -22.814041    8.934878    34.456013    -20.800129    1.914041    2.896777    3.986378    2.040601    -2.059633    6.335576    0.469049    3.393012    -10.176289    19.215853    0.000000    0.000000    0.000000    -3.316432    3.906443    1.076734    2.476851    4.701968    0.939277    3.105594    -8.447287    -11.535870    0.000000    0.000000    0.000000    
47.075356    89.294861    60.078960    -1.297603    -1.464542    1.648517    -1.906563    -8.382413    0.593654    2.296967    4.051311    0.163681    0.509797    12.117510    -0.648724    -1.346942    5.578268    -0.310082    -2.611708    4.522336    -0.598326    -70.117973    48.325333    -7.559619    8.386247    -14.475724    -12.501975    -30.666590    -14.398071    3.063423    -1.168270    7.439221    -6.678676    48.815163    79.215660    27.360851    -20.014671    -22.881746    8.848908    34.513947    -20.868204    1.948065    2.894383    3.991315    2.030968    -2.058940    6.328382    0.453088    3.405032    -10.153423    19.244062    0.000000    0.000000    0.000000    -3.317987    3.910201    1.077314    2.484243    4.695160    0.923846    3.113498    -8.441748    -11.530383    0.000000    0.000000    0.000000    
47.071110    89.317192    60.061115    -1.404225    -1.340593    1.632873    -1.784472    -8.497440    0.612176    2.291286    4.031413    0.168028    0.546873    12.128807    -0.670768    -1.438703    5.563842    -0.307918    -2.625037    4.527015    -0.609062    -70.120628    48.343227    -7.556462    8.396854    -14.482594    -12.491178    -30.681360    -14.402970    3.055823    -1.191752    7.386102    -6.678541    49.189835    79.203140    26.978502    -19.997622    -22.835478    8.885885    34.630547    -20.804050    1.983480    3.004369    3.838562    2.055496    -2.065917    6.363883    0.420134    3.373795    -10.169421    19.269421    0.000000    0.000000    0.000000    -3.203973    3.760165    1.098936    2.473897    4.701234    0.881148    3.154300    -8.322308    -11.528342    0.000000    0.000000    0.000000    
47.074432    89.317963    60.066826    -1.401964    -1.340722    1.625044    -1.770880    -8.498561    0.618552    2.273118    4.033697    0.170521    0.491232    12.136786    -0.648631    -1.324563    5.549858    -0.318613    -2.620769    4.522722    -0.605343    -70.123390    48.355885    -7.551376    8.398083    -14.496928    -12.497085    -30.687572    -14.423747    3.081469    -1.185069    7.425990    -6.689329    48.918827    79.218803    27.261795    -20.024071    -22.846813    8.847522    34.637665    -20.805784    2.031563    2.994153    3.843606    2.062341    -2.060227    6.361743    0.449752    3.385190    -10.156506    19.250069    0.000000    0.000000    0.000000    -3.207018    3.749805    1.090951    2.444132    4.771968    0.966291    3.179775    -8.394506    -11.553464    0.000000    0.000000    0.000000    
47.074329    89.316666    60.069752    -1.403971    -1.335181    1.625087    -1.765909    -8.499124    0.619079    2.266123    4.026695    0.170959    0.502123    12.134818    -0.640145    -1.335276    5.556957    -0.305391    -2.618711    4.522692    -0.610282    -70.129555    48.367241    -7.550704    8.412463    -14.507380    -12.471040    -30.704212    -14.432000    3.070129    -1.177063    7.564071    -6.791257    47.930752    79.147552    28.262056    -19.937136    -22.826334    8.905741    34.614300    -20.798706    1.975286    2.997168    3.839521    2.064313    -2.061378    6.367591    0.442626    3.396914    -10.168423    19.248425    0.000000    0.000000    0.000000    -3.205910    3.742489    1.096061    2.430829    4.798486    1.020468    3.210002    -8.430537    -11.590999    0.000000    0.000000    0.000000    
47.074772    89.316650    60.073860    -1.404854    -1.332710    1.626168    -1.764336    -8.502002    0.616803    2.269047    4.027983    0.170075    0.527092    12.164969    -0.660095    -1.405896    5.503239    -0.307994    -2.635112    4.524969    -0.606153    -70.112854    48.392189    -7.555560    8.423797    -14.528804    -12.463767    -30.718119    -14.449975    3.058231    -1.179588    7.432755    -6.691415    48.830547    79.201286    27.340944    -19.995110    -22.825558    8.875041    34.413837    -20.834656    1.863132    2.997871    3.838382    2.073482    -2.057683    6.364928    0.437343    3.409107    -10.157840    19.237661    0.000000    0.000000    0.000000    -3.210644    3.753631    1.098292    2.477452    4.723288    0.937809    3.155097    -8.347438    -11.567839    0.000000    0.000000    0.000000    
47.075191    89.318977    60.077000    -1.401074    -1.325387    1.629825    -1.768416    -8.501406    0.617096    2.270110    4.016820    0.170419    0.519734    12.155355    -0.650462    -1.392386    5.519789    -0.301985    -2.640471    4.521552    -0.601718    -70.116592    48.421894    -7.552267    8.441609    -14.540649    -12.442946    -30.721493    -14.457747    3.043946    -1.183487    7.403712    -6.665740    49.216560    79.154320    26.949345    -19.983627    -22.799999    8.906828    34.424877    -20.805931    1.856993    2.994137    3.832144    2.064070    -2.060044    6.369766    0.441397    3.362835    -10.175356    19.249006    0.000000    0.000000    0.000000    -3.211696    3.744219    1.083539    2.469918    4.738030    0.968694    3.159252    -8.356222    -11.588327    0.000000    0.000000    0.000000    
47.075455    89.316826    60.083889    -1.392966    -1.328004    1.634545    -1.792319    -8.486729    0.631575    2.290162    3.995695    0.175392    0.505308    12.149562    -0.652502    -1.348018    5.540040    -0.315140    -2.633014    4.520687    -0.635097    -70.147423    48.361023    -7.516573    8.409831    -14.509391    -12.482370    -30.683910    -14.434705    3.076843    -1.164953    7.391280    -6.703109    49.185265    79.182449    26.944889    -19.949272    -22.813560    8.914356    34.417488    -20.794182    1.950062    2.987191    3.840079    2.059258    -2.063883    6.366452    0.421870    3.211951    -10.297850    19.268280    0.000000    0.000000    0.000000    -3.221787    3.756123    1.078128    2.469618    4.732040    0.961166    3.163167    -8.369133    -11.579791    0.000000    0.000000    0.000000    
47.075863    89.317108    60.085644    -1.395757    -1.314004    1.640766    -1.849553    -8.567803    0.668989    2.394954    4.093412    0.184054    0.524661    12.499814    -0.940110    -1.387573    4.971388    -0.605811    -2.665974    4.515512    -0.761668    -70.135460    48.259613    -7.548270    8.385557    -14.490310    -12.465715    -30.682350    -14.419627    3.077820    -1.199430    7.359039    -6.734816    49.022621    79.276436    27.095449    -20.005310    -22.867855    8.863853    34.388081    -20.853743    1.950669    2.989441    3.824342    2.059673    -2.061496    6.373474    0.414929    3.381313    -10.174048    19.268173    0.000000    0.000000    0.000000    -3.213906    3.736149    1.062575    2.442739    4.790172    0.949964    3.234073    -8.416691    -11.523457    0.000000    0.000000    0.000000    
47.077030    89.316826    60.090683    -1.396662    -1.313742    1.636237    -1.847517    -8.563546    0.675439    2.398675    4.089203    0.186216    0.508018    12.140473    -0.662696    -1.386168    5.525947    -0.318618    -2.674829    4.495706    -0.765460    -70.160866    48.276550    -7.512874    8.402740    -14.494470    -12.459579    -30.689795    -14.420806    3.071076    -1.207680    7.322906    -6.695364    49.457085    79.230492    26.650225    -20.003922    -22.835402    8.905791    34.473373    -20.815933    1.938850    2.986647    3.827961    2.075239    -2.053579    6.368687    0.422856    3.381203    -10.158431    19.249756    0.000000    0.000000    0.000000    -3.211862    3.732009    1.065655    2.384193    4.842381    1.176422    3.270562    -8.492760    -11.659430    0.000000    0.000000    0.000000    
47.079117    89.316658    60.094555    -1.390609    -1.311061    1.639530    -1.857991    -8.561809    0.679283    2.406920    4.081409    0.187493    0.515624    12.149692    -0.661714    -1.401808    5.516718    -0.312965    -2.674276    4.492870    -0.778107    -70.170135    48.264786    -7.507207    8.392802    -14.488583    -12.451226    -30.683554    -14.414270    3.062963    -1.208785    7.325177    -6.701244    49.333904    79.276161    26.769934    -20.019213    -22.862171    8.884434    34.461388    -20.845074    1.940968    2.982644    3.827731    2.074146    -2.059744    6.371758    0.395218    3.193970    -10.314475    19.277657    0.000000    0.000000    0.000000    -3.223271    3.739770    1.066882    2.446545    4.780007    0.995438    3.184904    -8.422634    -11.570042    0.000000    0.000000    0.000000    
47.081268    89.315521    60.099041    -1.392306    -1.307056    1.648134    -1.847996    -8.565439    0.675628    2.394255    4.077924    0.186489    0.524403    12.167705    -0.669401    -1.417002    5.497286    -0.316375    -2.668517    4.497325    -0.777609    -70.175201    48.294369    -7.504931    8.415051    -14.501193    -12.446680    -30.701735    -14.424881    3.061181    -1.240864    7.467479    -6.765401    48.470291    79.216530    27.706497    -19.960117    -22.846886    8.883120    34.377689    -20.841812    1.919726    2.983717    3.824803    2.058161    -2.062141    6.372747    0.409170    3.224195    -10.307160    19.271540    0.000000    0.000000    0.000000    -3.227201    3.747435    1.065357    2.477901    4.726362    0.935783    3.146719    -8.363959    -11.549150    0.000000    0.000000    0.000000    
